<svg xmlns="http://www.w3.org/2000/svg" viewBox="0 0 1024 1024" width="1024" height="1024"><defs>
<linearGradient id="bg" x1="0" y1="0" x2="0" y2="1"><stop offset="0" stop-color="#6E9863"/><stop offset=".55" stop-color="#4F7A48"/><stop offset="1" stop-color="#3A5D35"/></linearGradient>
<radialGradient id="glow" cx=".5" cy=".18" r=".75"><stop offset="0" stop-color="#FFFFFF" stop-opacity=".20"/><stop offset="1" stop-color="#FFFFFF" stop-opacity="0"/></radialGradient>
<linearGradient id="cream" x1="0" y1="0" x2="0" y2="1"><stop offset="0" stop-color="#FFFCF4"/><stop offset="1" stop-color="#F1E6CF"/></linearGradient>
<linearGradient id="gold" x1="0" y1="0" x2="0" y2="1"><stop offset="0" stop-color="#F6CB6A"/><stop offset="1" stop-color="#DDA23F"/></linearGradient>
<filter id="sh" x="-20%" y="-20%" width="140%" height="150%"><feDropShadow dx="0" dy="14" stdDeviation="14" flood-color="#1F3A1C" flood-opacity=".30"/></filter>
</defs>
<rect width="1024" height="1024" fill="url(#bg)"/><rect width="1024" height="1024" fill="url(#glow)"/><g filter="url(#sh)" fill="url(#cream)"><g transform="translate(500 560) rotate(7) scale(1.5)"><path d="M-85 -120 C-88 -190 -50 -215 0 -215 C55 -215 95 -185 90 -115 C86 -50 55 -15 52 30 C50 85 78 120 72 170 C66 225 30 245 0 245 C-35 245 -72 220 -72 165 C-72 110 -50 70 -50 20 C-50 -25 -82 -60 -85 -120 Z"/><circle cx="-48" cy="-266" r="38"/><circle cx="22" cy="-284" r="28"/><circle cx="68" cy="-262" r="23"/><circle cx="99" cy="-224" r="19"/></g></g>
<g transform="translate(500 560) rotate(7) scale(1.5)"><path d="M0 110 L0 -70" stroke="#3F6A3A" stroke-width="17" stroke-linecap="round" fill="none"/>
<path d="M0 -40 C -50 -34 -84 -62 -90 -112 C -40 -118 -6 -90 0 -40 Z" fill="#5E8C54"/><path d="M0 -60 C 4 -112 36 -142 82 -150 C 86 -100 56 -72 0 -60 Z" fill="#3F6A3A"/></g></svg>